<svg xmlns="http://www.w3.org/2000/svg" xmlns:xlink="http://www.w3.org/1999/xlink" viewBox="0,0,256,256" width="16px" height="16px" fill-rule="nonzero"><g fill="none" fill-rule="nonzero" stroke="none" stroke-width="1" stroke-linecap="butt" stroke-linejoin="miter" stroke-miterlimit="10" stroke-dasharray="" stroke-dashoffset="0" font-family="none" font-weight="none" font-size="none" text-anchor="none" style="mix-blend-mode: normal"><g transform="scale(6.4,6.4)"><path d="M20,38.5c-10.201,0 -18.5,-8.299 -18.5,-18.5c0,-10.201 8.299,-18.5 18.5,-18.5c10.201,0 18.5,8.299 18.5,18.5c0,10.201 -8.299,18.5 -18.5,18.5z" fill-opacity="0.65882" fill="#035c6c"></path><path d="M20,2c9.925,0 18,8.075 18,18c0,9.925 -8.075,18 -18,18c-9.925,0 -18,-8.075 -18,-18c0,-9.925 8.075,-18 18,-18M20,1c-10.493,0 -19,8.507 -19,19c0,10.493 8.507,19 19,19c10.493,0 19,-8.507 19,-19c0,-10.493 -8.507,-19 -19,-19z" fill="#2eaeb7"></path><path d="M10,18h20v4h-20z" fill="#ffffff"></path><path transform="translate(40,0) rotate(90)" d="M10,18h20v4h-20z" fill="#ffffff"></path></g></g></svg>